<svg version="1.1" xmlns="http://www.w3.org/2000/svg" xmlns:xlink="http://www.w3.org/1999/xlink" x="0px" y="0px"
		viewBox="0 0 720 720" style="enable-background:new 0 0 720 720;" xml:space="preserve">
	<defs>
		<link href="../player.css" type="text/css" rel="stylesheet"
            xmlns="http://www.w3.org/1999/xhtml"/>
	</defs>
	<g>
		<path id="Lvl" class="s0" aria-label="Lvl"  d="m106.8 535q-12.5 0-21.6-8.6-8.6-9.2-8.6-21.6v-285.2q0-9.1 6.2-15.3 6.2-6.7 15.4-6.7 9.1 0 15.3 6.7 6.7 6.2 6.7 15.3v271.7h157q9.1 0 15.4 6.7 6.7 6.3 6.7 15.4 0 9.1-6.7 15.4-6.3 6.2-15.4 6.2zm324.5 2.4q-8.7 0-15.9-4.8-7.2-5.3-10.5-13l-83.5-199.6q-2.4-5.8-2.4-10.1 0-9.1 6.2-15.4 6.2-6.7 15.4-6.7 6.2 0 11.5 3.8 5.7 3.4 8.1 8.7l73.5 186.2 73.4-186.2q2.4-5.3 7.7-8.7 5.8-3.8 12-3.8 9.1 0 15.4 6.7 6.2 6.3 6.2 15.4 0 4.3-2.4 10.1l-83.5 199.6q-3.4 7.7-10.6 13-7.2 4.8-15.8 4.8zm189.1 0q-9.1 0-15.4-6.2-6.2-6.3-6.2-15.4v-311.5q0-9.1 6.2-15.4 6.3-6.7 15.4-6.7 9.6 0 15.8 6.2 6.3 6.3 6.3 15.9v311.5q0 9.1-6.7 15.4-6.3 6.2-15.4 6.2z"/>
	</g>
</svg>