<svg version="1.1" xmlns="http://www.w3.org/2000/svg" xmlns:xlink="http://www.w3.org/1999/xlink" x="0px" y="0px"
		viewBox="0 0 720 720" style="enable-background:new 0 0 720 720;" xml:space="preserve">
	<defs>
		<link href="../player.css" type="text/css" rel="stylesheet"
            xmlns="http://www.w3.org/1999/xhtml"/>
	</defs>
	<g>
		<path id="TX" class="s0" aria-label="TX"  d="m196.9 529.4q-9.1 0-15.3-6.2-6.3-6.3-6.3-15.4v-275h-97.9q-8.6 0-14.4-5.8-5.8-5.8-5.8-14.4 0-8.6 5.8-14.4 5.8-6.2 14.4-6.2h239q8.7 0 14.4 6.2 6.3 5.8 6.3 14.4 0 8.6-6.3 14.4-5.7 5.8-14.4 5.8h-97.4v275q0 9.1-6.7 15.4-6.3 6.2-15.4 6.2zm204.5 0q-8.2 0-14.4-5.8-5.8-6.2-5.8-14.4 0-7.6 4.4-13.4l110.8-136.3-109.9-135.4q-4.3-5.7-4.3-13.4 0-9.1 5.8-14.9 6.2-6.2 15.3-6.2 5.3 0 10.1 2.4 4.8 2.4 7.7 6.2l101.3 128.6 101.2-129.6q5.3-7.6 15.9-7.6 8.6 0 14.9 6.2 6.2 5.8 6.2 14.4 0 6.7-3.8 12l-110.9 136.8 110.9 136.3q4.3 4.8 4.3 12.5 0 9.1-6.3 15.4-5.7 6.2-15.3 6.2-10.6 0-17.3-9.1l-102.7-129.1-101.3 129.6q-7.2 8.6-16.8 8.6z"/>
	</g>
</svg>